<svg xmlns="http://www.w3.org/2000/svg" viewBox="0 0 618.82 204.31"><defs><style>.cls-1{fill:#003c79;stroke:#003c79;stroke-miterlimit:10;stroke-width:40px;}.cls-2{fill:#fff;}</style></defs><g id="Layer_2" data-name="Layer 2"><g id="Layer_1-2" data-name="Layer 1"><polygon class="cls-1" points="537.41 75.88 410.41 114.88 479.41 182.88 587.41 181.88 537.41 75.88"/><rect class="cls-1" x="421.41" y="86.88" width="27" height="33" transform="translate(869.82 206.77) rotate(-180)"/><polygon class="cls-1" points="309.29 28.88 160.13 184.31 458.48 184.31 309.29 28.88"/><polygon class="cls-1" points="81.41 75.88 208.41 114.88 139.41 182.88 31.41 181.88 81.41 75.88"/><rect class="cls-1" x="170.41" y="86.88" width="27" height="33"/><path class="cls-2" d="M309.16,63.26C296,76.92,283.27,90.21,270.51,103.5q-37.65,39.19-75.31,78.36c-.86.9-2.12,2-3.21,2-9.9.15-19.8.09-31.16.09L309.29,29.25,457.78,184H440.93c-16.15,0-16-.17-27.09-11.82q-50.38-52.86-101-105.47C311.77,65.63,310.64,64.66,309.16,63.26Z"/><path class="cls-2" d="M411.28,116.17c-.55.3-.17,0,.26-.13,9.42-3.2,9.42-3.2,9.42-13.14V93.34L447.76,88v27.52l.75.06c.34-1.23,1.06-2.48,1-3.68-.51-7.21,4-9.13,9.92-10.89,22.6-6.68,45-13.88,67.54-20.88.76-.24,1.52-.45,3.59-1-20.48,33-40.33,65.06-60.13,97Z"/><path class="cls-2" d="M170.33,114.62V87.93l27.1,5.36c0,5.27.29,10.09-.08,14.86-.32,4.07.86,6.23,5.11,6.62a30.71,30.71,0,0,1,5.63,1.59L148.3,176.23,88,79c7,2.11,12.93,3.87,18.84,5.71,18.06,5.62,36.05,11.51,54.23,16.76,5.27,1.52,7.94,3.91,7.93,9.33a24.55,24.55,0,0,0,.58,3.85Z"/><path class="cls-2" d="M580.75,173.79l-43-65.88c-2,3.29-3.72,6-5.35,8.75-11.57,19.41-23.05,38.87-34.79,58.18-1,1.57-3.48,2.8-5.41,3-3.92.46-7.94.14-13.2.14,19.54-33.3,38.62-65.84,58.2-99.22,15.07,32.08,29.74,63.34,44.42,94.6Z"/><path class="cls-2" d="M139.27,176.76c-1,.25-1.16.32-1.32.33-15,.67-15,.65-22.65-12.25q-15.78-26.58-31.66-53.09c-.83-1.4-1.72-2.78-2.87-4.63L37.39,173.66l-.78-.42L81.29,78Z"/><path class="cls-2" d="M332.61,149.92H312.52V121.19C325.34,121.14,334.66,134.14,332.61,149.92Z"/><path class="cls-2" d="M306,149.79H286.1c-3.38-13.68,6.13-27.47,19.89-28.84Z"/><path class="cls-2" d="M332.8,173.46H312.46V156H332.8Z"/><path class="cls-2" d="M285.48,173.27V156.16h20.46v17.11Z"/></g></g></svg>