<svg xmlns="http://www.w3.org/2000/svg" viewBox="0 0 674.16 288.7"><defs><style>.cls-1,.cls-2{fill:#003c79;}.cls-2{stroke:#003c79;stroke-miterlimit:10;stroke-width:40px;}.cls-3{fill:#fff;}</style></defs><g id="Layer_2" data-name="Layer 2"><g id="Layer_1-2" data-name="Layer 1"><path class="cls-1" d="M19.59,280.7a9.16,9.16,0,0,1-3-.52l-.11,0,.12,0-4.19-13.12a265.46,265.46,0,0,1,44.15-39.75c35.21-25.2,74.73-40.43,120.82-46.55a404.85,404.85,0,0,1,53.07-3.39,540.9,540.9,0,0,1,67.85,4.54c20.35,2.54,41,5.36,60.95,8.09,23.13,3.16,47.05,6.42,70.58,9.28a443.27,443.27,0,0,0,53.22,3.58,268.23,268.23,0,0,0,47.34-3.94c54.94-9.77,93.13-43.21,116.77-102.26.74-1.84,1.51-3.62,2.4-5.67.45-1,.94-2.18,1.47-3.43l15.23,4.56c-7.36,40.91-21.54,74.47-42.13,99.77-21.25,26.1-49.44,43.6-83.79,52-18.42,4.51-38.16,6.71-60.35,6.71-8.61,0-17.58-.32-27.42-1-40.84-2.74-81.48-10.84-120.78-18.68l-14.34-2.85c-32.64-6.44-67.63-12.4-102.38-12.4-4.23,0-8.46.09-12.56.26C136,218.77,79.1,238.51,28.44,276.3c-1.6,1.19-3,2.16-4.3,3A8.28,8.28,0,0,1,19.59,280.7Z"/><path class="cls-1" d="M658.41,90.7c-14.17,78.68-53.76,129.22-120,145.44-19.35,4.74-38.86,6.48-58.44,6.48-8.95,0-17.91-.37-26.89-1-45.17-3-89.6-12.61-134.1-21.39-34.43-6.8-68.94-12.56-103.93-12.56q-6.43,0-12.9.27C138,210.68,78,229.36,23.66,269.88c-1.29,1-2.6,1.9-3.93,2.78a.23.23,0,0,1-.14,0,10.86,10.86,0,0,1-1.18-.32,258.56,258.56,0,0,1,42.83-38.56c36-25.75,75.36-39.57,117.21-45.13a395.38,395.38,0,0,1,52-3.32,539.57,539.57,0,0,1,66.85,4.47c43.88,5.5,87.66,12.06,131.56,17.38a450,450,0,0,0,54.18,3.64,277.31,277.31,0,0,0,48.74-4.06c57.71-10.26,98.4-46.24,122.8-107.16,1.06-2.65,2.23-5.25,3.8-8.94m-14.72-6.28c-.52,1.23-1,2.33-1.44,3.36-.92,2.12-1.72,4-2.5,5.91C617.23,150,581,181.8,529,191a260.06,260.06,0,0,1-45.94,3.82,433.55,433.55,0,0,1-52.25-3.53c-23.48-2.84-47.37-6.1-70.48-9.26-20-2.73-40.64-5.55-61-8.1a550.81,550.81,0,0,0-68.83-4.6,414,414,0,0,0-54.13,3.46c-47.42,6.3-88.12,22-124.43,48A276.62,276.62,0,0,0,6.46,261.74L14.82,288c-.28-.07-.53-.14-.74-.21a17.16,17.16,0,0,0,5.51.93A16.22,16.22,0,0,0,28.53,286c1.47-1,3-2,4.7-3.31C82.55,245.91,138,226.7,202.86,224c4-.17,8.12-.25,12.23-.25,34.06,0,68.59,5.89,100.83,12.25,4.78.94,9.55,1.9,14.33,2.85,39.55,7.88,80.44,16,121.8,18.82,10,.67,19.17,1,28,1,22.84,0,43.2-2.27,62.25-6.94,36.08-8.84,65.72-27.26,88.09-54.74,21.46-26.36,36.2-61.15,43.81-103.4l-30.47-9.12Z"/><polygon class="cls-2" points="537.41 75.88 410.41 114.88 479.41 182.88 587.41 181.88 537.41 75.88"/><rect class="cls-2" x="421.41" y="86.88" width="27" height="33" transform="translate(869.82 206.77) rotate(-180)"/><polygon class="cls-2" points="309.29 28.88 160.13 184.31 458.48 184.31 309.29 28.88"/><polygon class="cls-2" points="81.41 75.88 208.41 114.88 139.41 182.88 31.41 181.88 81.41 75.88"/><rect class="cls-2" x="170.41" y="86.88" width="27" height="33"/><path class="cls-3" d="M27.45,262.5A242,242,0,0,1,69.07,230C104,208.35,142.3,196.71,183,192c38.57-4.44,77.07-3.2,115.52,1,42.64,4.62,85.19,10.15,127.85,14.63,33.29,3.49,66.66,4.78,100-.36C582.43,198.63,622,168.34,645.67,117c1-2.23,2.17-4.42,3.7-7.52C635.6,175.76,597.13,218.32,532.8,232c-27.4,5.82-55.13,6.26-82.92,4.64-43.9-2.56-87.06-10.62-130.31-18C282,212.18,244.34,206.85,206,208.26c-62.4,2.29-120.7,18-173.49,52.13-1.25.81-2.52,1.6-3.82,2.34C28.54,262.85,28.15,262.64,27.45,262.5Z"/><path class="cls-3" d="M309.16,63.26C296,76.92,283.27,90.21,270.51,103.5q-37.65,39.19-75.31,78.36c-.86.9-2.12,2-3.21,2-9.9.15-19.8.09-31.16.09L309.29,29.25,457.78,184H440.93c-16.15,0-16-.17-27.09-11.82q-50.38-52.86-101-105.47C311.77,65.63,310.64,64.66,309.16,63.26Z"/><path class="cls-3" d="M635.52,168.26c-3.69,8.79-6.88,17.84-11.17,26.33C605,232.92,572.75,253.75,531.47,262c-29.5,5.89-59.21,5.29-88.94,2.44-52.9-5.08-104.37-18-156.28-28.56-28.46-5.79-57.16-10.4-85.84-15.07-9-1.46-18.18-1.37-27.36-2.67,6.57-.39,13.13-1,19.7-1.16,33.41-1,66.35,3.71,99.27,8.52,43.72,6.39,87.35,13.5,131.18,19.06,33,4.2,66.33,5.26,99.52.48,27.71-4,53.76-12.26,76-30.13a118,118,0,0,0,32.39-41.2c1-2,2-4,3-6.06Z"/><path class="cls-3" d="M411.28,116.17c-.55.3-.17,0,.26-.13,9.42-3.2,9.42-3.2,9.42-13.14V93.34L447.76,88v27.52l.75.06c.34-1.23,1.06-2.48,1-3.68-.51-7.21,4-9.13,9.92-10.89,22.6-6.68,45-13.88,67.54-20.88.76-.24,1.52-.45,3.59-1-20.48,33-40.33,65.06-60.13,97Z"/><path class="cls-3" d="M170.33,114.62V87.93l27.1,5.36c0,5.27.29,10.09-.08,14.86-.32,4.07.86,6.23,5.11,6.62a30.71,30.71,0,0,1,5.63,1.59L148.3,176.23,88,79c7,2.11,12.93,3.87,18.84,5.71,18.06,5.62,36.05,11.51,54.23,16.76,5.27,1.52,7.94,3.91,7.93,9.33a24.55,24.55,0,0,0,.58,3.85Z"/><path class="cls-3" d="M580.75,173.79l-43-65.88c-2,3.29-3.72,6-5.35,8.75-11.57,19.41-23.05,38.87-34.79,58.18-1,1.57-3.48,2.8-5.41,3-3.92.46-7.94.14-13.2.14,19.54-33.3,38.62-65.84,58.2-99.22,15.07,32.08,29.74,63.34,44.42,94.6Z"/><path class="cls-3" d="M139.27,176.76c-1,.25-1.16.32-1.32.33-15,.67-15,.65-22.65-12.25q-15.78-26.58-31.66-53.09c-.83-1.4-1.72-2.78-2.87-4.63L37.39,173.66l-.78-.42L81.29,78Z"/><path class="cls-3" d="M332.61,149.92H312.52V121.19C325.34,121.14,334.66,134.14,332.61,149.92Z"/><path class="cls-3" d="M306,149.79H286.1c-3.38-13.68,6.13-27.47,19.89-28.84Z"/><path class="cls-3" d="M332.8,173.46H312.46V156H332.8Z"/><path class="cls-3" d="M285.48,173.27V156.16h20.46v17.11Z"/></g></g></svg>