<svg xmlns="http://www.w3.org/2000/svg" viewBox="0 0 1249.89 804.27"><defs><style>.cls-1{fill:#003c79;}</style></defs><g id="Layer_2" data-name="Layer 2"><g id="Layer_1-2" data-name="Layer 1"><path class="cls-1" d="M172.53,374s119-137,356-123c284.6,16.81,525,118,625-122,0,0-24.82,172.5-225,196C681.53,354,530.53,184,172.53,374Z"/><path class="cls-1" d="M413.53,301s89.17-7.87,243,16c174,27,404,76,483-110,0,0-42.6,162.22-196.46,167C717.53,381,676.53,328,413.53,301Z"/><polygon class="cls-1" points="385.3 247 618.17 0 852.13 247 798.65 247 618.17 53.85 434.81 247 385.3 247"/><polygon class="cls-1" points="446.53 135.05 446.53 105 399.16 94.75 399.16 119.98 273.51 80 367.79 236.3 462.07 140 446.53 135.05"/><polygon class="cls-1" points="184.21 238 259.7 80 350.93 238 323.66 238 258.65 123.5 184.21 238"/><polygon class="cls-1" points="791.75 135.05 791.75 105 839.12 94.75 839.12 119.98 964.77 80 870.49 236.3 776.21 140 791.75 135.05"/><polygon class="cls-1" points="1054.07 238 978.58 80 887.35 238 914.62 238 979.62 123.5 1054.07 238"/><path class="cls-1" d="M625.53,192h33.32V176.74s-8.44-28.57-33.32-33.11Z"/><path class="cls-1" d="M610.53,192V143.81c-24,4.87-33,30.13-33,30.13V192Z"/><rect class="cls-1" x="625.53" y="207" width="33.32" height="28"/><rect class="cls-1" x="577.53" y="207" width="33" height="28"/><path class="cls-1" d="M739,536c0-38.11-.07-76.23.08-114.34,0-4.92-.89-7.91-6.5-8.28A36.63,36.63,0,0,1,722,411.05c-1.9-.74-3.23-2.95-4.82-4.49,1.68-.78,3.36-2.23,5.05-2.24,31.85-.06,63.7,0,95.54.11a3.6,3.6,0,0,1,1.55.07c1.41.73,2.74,1.6,4.1,2.41-1,1-1.91,2.52-3.13,2.9a130.43,130.43,0,0,1-15.09,4c-3.57.66-4.45,2.46-4.45,5.71q.09,53,0,106c0,4.33,1.81,5.74,6,5.74q34.19,0,68.39.39c4.75.06,6.49-1.85,6.5-6.48q.06-52.74.39-105.47c0-3.29-1-5.13-4.5-5.75a84.36,84.36,0,0,1-13.64-3.35c-1.87-.67-3.13-3-4.66-4.64,1.77-.64,3.55-1.83,5.33-1.83q48-.07,96.06.2c1.66,0,3.31,1.46,5,2.25-1.35,1.07-2.55,2.62-4.08,3.13-4.78,1.56-9.66,2.83-14.55,4-3.11.76-4.31,2.59-4.07,5.65.09,1.21,0,2.44,0,3.66V647c0,8.66,0,8.6,8.42,10.78q8.06,2.1,16,4.62c1.25.4,2.22,1.66,3.32,2.53-1.31.76-2.61,2.16-3.93,2.18-10.61.18-21.23.11-31.85.11H867.43a14.68,14.68,0,0,1-4.15-.13,15.88,15.88,0,0,1-3.56-2.23c.95-.84,1.77-2.08,2.87-2.43a111.3,111.3,0,0,1,11.1-2.81c5.13-1,7.51-3.42,7.49-9.21-.13-33.59.15-67.18.27-100.77,0-7.28-.14-7.44-7.18-7.46-22.45-.07-44.9,0-67.35-.26-4.77-.06-6.3,1.37-6.28,6.2q.27,50.89,0,101.81c0,4.88,1.48,7.11,6.52,7.94,5.79.95,11.41,3,17.05,4.71,1.28.39,2.29,1.63,3.43,2.47-1.34.73-2.68,2.06-4,2.08-12.52.19-25.06.15-37.59.18-21,0-42.11.12-63.17,0-1.73,0-3.45-1.27-5.17-1.95a35.25,35.25,0,0,1,4.53-3.14,29,29,0,0,1,5.46-1.74c10.94-2.77,11-2.76,11-14.28q0-55.08,0-110.16Z"/><path class="cls-1" d="M558.94,404.21c14.26,0,28.53-.09,42.79,0,21.86.17,43.39,3.31,64,10.41,16.37,5.63,31.66,14.26,41.79,28.86,14.16,20.38,18,42.83,10.15,66.87S691.76,547,669.15,555.14c-25.46,9.16-51.83,11.11-78.51,11.08-7.19,0-7.46,0-7.47,7,0,25.39.09,50.79-.08,76.19,0,4.93,1.72,7.13,6.61,8.07,6.45,1.24,12.76,3.28,19.08,5.15.93.28,1.58,1.49,2.36,2.27-1,.73-1.85,1.79-2.95,2.12a15.06,15.06,0,0,1-4.15.13H506.45a13.29,13.29,0,0,1-3.63-.12,10,10,0,0,1-2.69-1.83c.74-1,1.31-2.48,2.26-2.77,4-1.21,8.05-2.15,12.12-3,4.45-1,6.61-3,6.62-8.14q.21-114.81.85-229.61c0-4.63-.78-7.67-6.18-8.15A45.66,45.66,0,0,1,504.14,411c-1.82-.68-3-3-4.5-4.64,1.67-.78,3.34-2.21,5-2.23,18.09-.16,36.18-.1,54.27-.1Zm24,80.73h.17c0,21.58.08,43.16-.06,64.73,0,4.28,1.36,6.2,5.72,5.63,6.37-.83,12.82-1.23,19.11-2.48,24.68-4.91,37.26-16.63,43.4-43.57,3.22-14.08,2.28-28.06-.53-41.94-2.35-11.59-5.57-23-13.26-32.47-12.33-15.17-29.2-19.77-47.74-20.25-6.6-.16-6.79.14-6.8,6.67Q583,453.11,583,484.94Z"/><path class="cls-1" d="M44.42,650.88c9.66,6.34,21.53,7.56,30.48,14.33l-.5,1.7H1L0,666c1.23-1.14,2.27-2.73,3.72-3.34,8.46-3.57,17.07-6.8,25.52-10.43a8.76,8.76,0,0,0,4.35-4.07c11.52-26.75,22.86-53.58,34.24-80.39,11.93-28.09,24-56.1,35.73-84.27,10.12-24.34,19.84-48.83,29.62-73.31,1.35-3.37,2.83-6,7-5.54,4.4.48,9.06-1.14,11.63,5.13,14.45,35.31,29.31,70.45,44.08,105.62Q217.53,567,239.27,618.46c4.37,10.39,9.37,20.58,12.81,31.27,2.39,7.41,8.1,8.19,13.73,10.07a33.55,33.55,0,0,1,6.3,2.32c.89.52,1.33,2.28,1.4,3.51,0,.51-1.43,1.64-2.18,1.61-20.62-.8-41.35,2.37-61.89-1.74-13.57-2.71-20.84-12.44-26.37-23.84-7.1-14.67-14-29.42-20.49-44.38-1.89-4.39-4.31-5.57-8.63-5.55-23.84.12-47.68.08-71.51,0-12.91,0-13-.08-18.09,12C57.7,619.34,51.14,635,44.42,650.88ZM115.8,485.32c-1.73,2.63-3,4.09-3.77,5.81C100.29,518.74,88.65,546.39,76.91,574c-2.49,5.86-1.82,7.18,4.48,7.19q33.4,0,66.82,0c6.37,0,6.76-.93,4.18-7.12q-13.8-33.13-27.43-66.34C122.08,500.72,119.23,493.71,115.8,485.32Z"/><path class="cls-1" d="M1047.57,667a51.29,51.29,0,0,1-5.51.61c-21.23,0-42.46.07-63.69,0-1.63,0-3.25-1.09-4.87-1.67,1.28-1.17,2.36-2.78,3.86-3.43,8.14-3.48,16.47-6.49,24.5-10.18a11.81,11.81,0,0,0,5.26-5.75q17.77-41.06,35.19-82.28c10.92-25.69,22-51.34,32.63-77.13,10.81-26.12,21.24-52.39,31.84-78.59,1.31-3.24,3.8-4.31,7.11-3.9,3.91.48,8.35-1.15,10.59,4.32,8.48,20.7,17.24,41.29,25.9,61.92q17.71,42.21,35.41,84.44T1221,639.84c1.87,4.48,3.67,9,5.63,13.44,2.26,5.16,7.78,4.56,11.88,6.43,2,.92,4.4,1.18,6.34,2.24a4,4,0,0,1,1.62,3.32c-.14.84-1.88,2-2.91,2-18.44,0-36.93.64-55.3-.49-15.92-1-25.89-11.3-32.33-25.34-6.87-15-14-29.84-20.66-44.89-1.53-3.43-3.42-4.79-7-4.79-27.15,0-54.3-.12-81.45,0-1.9,0-4.92,1.19-5.54,2.63-8,18.61-15.76,37.36-23.9,56.9l30.9,13.3Zm41.22-181.77c-1.77,2.83-3,4.36-3.78,6.1q-17.74,41.58-35.39,83.21c-2.16,5.07-1.28,6.62,4.26,6.63q33.9.06,67.8,0c5.79,0,6.38-1.15,4.13-6.47q-10-23.69-19.88-47.44C1100.38,513.85,1095,500.38,1088.79,485.23Z"/><path class="cls-1" d="M285.63,665.64c1.25-.91,2.37-2.24,3.77-2.66A130.08,130.08,0,0,1,302,659.85c3.28-.64,4.86-2.41,4.94-5.67,0-1.22,0-2.44,0-3.65q.53-112.77,1-225.53c.05-9.39,0-9.36-8.9-11.17a88.81,88.81,0,0,1-10.63-2.52c-1.27-.43-2.08-2.21-3.1-3.37A20.67,20.67,0,0,1,288.9,405c.81-.44,2.05-.12,3.09-.11l92.93.38a8,8,0,0,1,2.59.08,40.88,40.88,0,0,1,4.2,2.19c-1.27,1.19-2.35,3-3.86,3.46a65.3,65.3,0,0,1-12.65,3c-5.1.55-6.64,3-6.61,7.9.17,35.5.13,71,.17,106.5q.06,60,.13,120.08c0,8,.31,8.29,8.14,8.35,21.76.17,43.51.18,65.26.56,5.35.09,7.1-1.74,7.62-7.07,1.65-16.91,6.93-32.59,18.34-45.6,1.92-2.2,4.79-4.42,7.53-4.9,8.22-1.46,9.39-.15,9.39,8.13q0,26.37,0,52.73c0,7-.27,7.26-7.47,7.25q-92.93-.12-185.85-.3c-1.86,0-3.71-.25-5.56-.39Z"/><path class="cls-1" d="M573.05,769.44c0,7.08-.51,14.36.3,21.49.25,2.29,3.75,4.52,6.19,6.16,1.81,1.22,4.29,1.44,6.48,2.1l-.48,2.22H551.37l-2.28-2.71c1.53-.41,3.08-1.21,4.6-1.16,7.37.19,8.68-4,8.55-10.31-.29-13.45-.09-26.91-.09-40.37,0-14.09,0-14.09-11.6-20.41,1.51-.71,2.57-1.65,3.64-1.66,11.78-.09,23.57-.49,35.32.08,16.07.78,25.35,10.62,23.79,24.25-1.2,10.5-8.4,15.22-16.18,17.57,4.33,6.71,9,13.53,13.2,20.61,2.91,4.91,4.59,11.07,13.66,6.9l-.15,3.52c-3.49,1.85-7,5.14-10.47,5.16S605,800.59,603,797.73c-3.16-4.41-4.64-10.1-6.5-15.36C591.73,769,588.56,767.07,573.05,769.44Zm.49-6.52c9.38.77,19.56,2.74,24.32-6.68,2.7-5.34,2.7-14.16.09-19.57-4.7-9.77-15.11-6.84-24.41-7.07Z"/><path class="cls-1" d="M302.23,778.88c0-14,.68-28-.43-41.81-.31-3.93-5.84-7.45-9.06-11.26H318c-.09.74-.09,1.72-.23,1.74C307.53,729,307,736,307.19,744.48a474.69,474.69,0,0,1-1.85,58.44c-2.2-1.87-4.86-3.4-6.52-5.66-12.27-16.7-24.32-33.56-36.46-50.35a19.23,19.23,0,0,0-6.94-6.36v16.08c0,9.81.24,19.62-.08,29.41-.22,6.69.64,11.85,9,11.63.75,0,1.54,1.21,4,3.35H237.57c2.26-1.75,3.47-3.47,4.68-3.48,7.08,0,8-4.24,7.95-10-.2-15.68-.34-31.38.05-47,.18-6.9-1.1-11.61-9.08-11.81-.61,0-1.22-.95-1.78-1.52-.14-.14,0-.51-.06-.77,12.53-4.5,20.72-2.33,27.68,7.3q16.65,23.05,33.33,46.1Z"/><path class="cls-1" d="M1171.38,724.71c6.07,0,12.19-.43,18.19.22,2.23.24,4.7,2.63,6.21,4.67,10.64,14.42,21.06,29,31.58,43.54,1.58,2.19,3.32,4.27,6.44,8.25,0-17.14.16-32.08-.21-47,0-1.67-2.86-3.58-4.76-4.81-1.68-1.09-3.87-1.39-5.59-3.87h26.65a7.6,7.6,0,0,1-.09,1.4c-12.43,2.09-10.78,11.5-10.72,20.27.12,17.91,0,35.83,0,56.89-4.14-3.44-7-5-8.71-7.37-12.28-16.7-24.32-33.57-36.47-50.38-1.6-2.22-3.34-4.34-6.45-8.36,0,19.53-.16,37,.26,54.36,0,1.62,3.63,3.34,5.79,4.66a26.58,26.58,0,0,0,5.15,1.9l-.48,2.2h-28.44c1.7-1.92,2.51-3.61,3.29-3.59,8.43.17,9.14-5,9-11.66q-.45-22.69,0-45.4c.15-6.71-.73-11.74-8.88-12-.79,0-1.54-1.18-2.31-1.8C1171.05,726.14,1171.21,725.43,1171.38,724.71Z"/><path class="cls-1" d="M122.83,763.18c0-26.46,20.09-44.37,43.77-39.06,20.8,4.66,32,23.21,28.49,47.21-2.87,19.66-19.48,33.76-37.81,32.09C136.17,801.48,122.81,785.89,122.83,763.18Zm11.55,0c1.72,7.52,2.7,15,5.2,22,3.11,8.64,10,13.24,19.37,13.41s16.26-4.32,19.81-12.8a56.82,56.82,0,0,0,.09-44.85c-3.47-8.42-10.12-13-19.67-12.89s-16.31,4.52-19.51,13.07C137.08,748.1,136.12,755.66,134.38,763.19Z"/><path class="cls-1" d="M1053.33,758.92c.23-10.69,4.92-23.43,18.62-31,12.22-6.79,24.77-6.44,36.76.71,15.64,9.34,21.89,32.33,14.4,51.67-6.39,16.51-22.33,25.5-39.58,22.32C1064.4,799.06,1053.31,784.58,1053.33,758.92Zm61.32,4.14c-1.91-7.75-3-15.57-5.82-22.71-3.22-8.16-10-12.3-19.16-12.26s-15.77,4.1-19.27,12.21a56.63,56.63,0,0,0-.19,45.6c3.41,8.2,10.09,12.54,19,12.73,9.33.2,16.5-4.16,19.77-12.73C1111.74,778.72,1112.78,770.89,1114.65,763.06Z"/><path class="cls-1" d="M653.79,725.65h33.9c-.18.82-.3,2.25-.52,2.26-10.66.78-10.65,8-10.33,16.07.43,10.9-.06,21.83.16,32.74.28,13.81,7.72,21.77,20.1,22,12.55.19,20.51-7.28,21.08-21,.56-13.41.1-26.86.23-40.29.05-5-1.9-7.89-7.13-8.39-1.37-.14-2.66-1.19-3.72-3.37h26.87a8.4,8.4,0,0,1-.42,2.13c-9.51,1-10.79,7.06-10.42,15.28a315.83,315.83,0,0,1-.28,34.4c-1.08,17.06-11.6,26.25-28.72,26.06s-27.48-9.44-28.45-26.46c-.53-9.49-.17-19-.18-28.54C665.94,733.43,666,733.43,653.79,725.65Z"/><path class="cls-1" d="M358.59,800.72c-.55-8-1-14.79-1.51-21.62l2.38-.79c1.1,2.37,2.35,4.69,3.28,7.12,4,10.4,12.74,15.32,23.3,12.81,6.17-1.47,10.77-4.83,11.88-11.5,1.07-6.45-1.15-11.92-6.84-15s-11.77-5.06-17.64-7.63c-7.12-3.12-13.42-7.19-15.58-15.31-2.69-10.15,2.29-21.23,12.59-23.2,9.6-1.84,19.83-.5,29.77-.33,1,0,2.85,1.46,3,2.41.77,6.08,1.16,12.21,1.67,18.32l-3.06.61q-1.43-3.5-2.83-7c-3.19-7.92-8.94-11.72-17.58-11.53-6.34.14-11,2.5-12.71,8.75s.74,11.28,6.1,14.33c4.58,2.6,9.71,4.22,14.6,6.26,15.27,6.33,21.22,14.51,19.4,26.65-1.7,11.32-11.54,18.86-26.91,19.21C374.21,803.45,366.51,801.65,358.59,800.72Z"/><path class="cls-1" d="M462.14,801.14c1.64-2,2.32-3.44,2.92-3.41,10.41.6,10.64-6,10.51-13.73-.3-17.84-.1-35.69-.1-53.64-14.7-3.27-21.38,4.38-24.53,17.46l-3.15-1.46c.43-7,.87-14,1.31-21.32h63.31c.56,7.2,1.1,14.09,1.63,21l-1.55,1.62c-6-9.8-10.38-22.37-26.13-16.89,0,20-.17,40.36.26,60.69,0,2,3.52,4.18,5.82,5.63,1.72,1.08,4.1,1.12,6.19,1.62-.11.82-.22,1.63-.32,2.45Z"/><path class="cls-1" d="M941,746.79c-2.77-4.51-4.64-10.19-8.56-13.21s-10-3.59-17.12-5.85v21.06c0,12.31.22,24.64-.08,36.94-.17,7.13,1,12.38,9.79,11.84a3.45,3.45,0,0,1,2.1,1.12c.31.3.19,1,.39,2.52H892.78l-2-2.27c1.46-.49,2.94-1.45,4.38-1.39,8.13.36,9.63-4.18,9.52-11.19-.3-18.67-.1-37.35-.1-56C889.74,727,883.18,734.89,880,748l-3.1-1.59c.41-6.83.82-13.66,1.27-21.08h63.41l1.48,20.78Z"/><path class="cls-1" d="M76.47,750c-1.53-3.52-2.48-5.33-3.1-7.24-2.37-7.33-6-13.49-14.49-14.45-9.75-1.11-18.44,1-24.52,9.49-8.66,12.16-8.17,36,1,47.77C43.63,796.28,58.84,799,71.78,792c2.36-1.27,4.67-2.61,7-3.92l2,2c-2.4,2.43-4.47,5.33-7.24,7.21C50.28,813,19.14,797.64,15.84,769c-3.27-28.48,15.32-47.79,44-45.66,17.93,1.34,21.05,5.22,18.55,23.14C78.23,747.2,77.6,747.88,76.47,750Z"/><path class="cls-1" d="M833.79,788.14c-3.16,10.08-15.31,16.12-27.1,15.3-21.86-1.5-36.29-17.66-36.24-40.57s14.48-38.54,36.87-39.72a61.88,61.88,0,0,1,9.23.31c16.11,1.56,19.87,7.51,15,26.25-1.48-3-2.52-4.63-3.08-6.39-2.43-7.59-6-14.11-14.93-15.06-9.77-1-18.42,1.12-24.41,9.7-8.41,12-8,35.28.7,47.09,8.29,11.2,23.8,14.05,37.05,6.83C829.15,790.62,831.47,789.39,833.79,788.14Z"/><path class="cls-1" d="M980.14,725.63h33.54c-16.1,3-11,15.27-11.32,24.68-.33,11.74.15,23.49-.16,35.23-.19,7,.63,12.41,9.48,12.13.79,0,1.63,1.61,3.59,3.68H977.4c3.42-2.17,4.84-3.85,6.27-3.86,6.42,0,8.07-3.71,8.06-9.23-.05-16.5-.56-33,.2-49.48C992.36,729.35,985,729.79,980.14,725.63Z"/></g></g></svg>