<svg xmlns="http://www.w3.org/2000/svg" viewBox="0 0 1920 724.31"><defs><style>.cls-1{fill:#ebebeb;}.cls-2{fill:#01afff;}.cls-3{fill:#003c79;}.cls-4{fill:#06afff;}</style></defs><g id="Layer_2" data-name="Layer 2"><g id="Layer_1-2" data-name="Layer 1"><path class="cls-1" d="M.24,644.34V465.51s200-226.1,603-226.1c337,0,405,52,811,66C1808,319,1920,0,1920,0V172.8s-79.07,218.08-295.75,281.61c-324,95-729.62-68.34-1116.42-30C155.24,459.41.24,644.34.24,644.34Z"/><path class="cls-2" d="M.24,684.34V505.51s200-226.1,603-226.1c337,0,405,52,811,66C1808,359,1920,40,1920,40V212.8s-79.07,218.08-295.75,281.61c-324,95-729.62-68.34-1116.42-30C155.24,499.41.24,684.34.24,684.34Z"/><path class="cls-3" d="M1920,80s-112,319-505.76,305.41c-406-14-474-66-811-66-403,0-603,226.1-603,226.1V724.31H1920V252.78h0Z"/><path class="cls-4" d="M960.35,434C519.52,434,143.83,548.89,0,710v14.1H1920V709.17C1775.65,548.51,1400.47,434,960.35,434Z"/></g></g></svg>