<svg xmlns="http://www.w3.org/2000/svg" viewBox="0 0 1919.76 724.34"><defs><style>.cls-1{fill:#dedede;}.cls-2{fill:#01afff;}.cls-3{fill:#003c79;}</style></defs><g id="Layer_2" data-name="Layer 2"><g id="Layer_1-2" data-name="Layer 1"><path class="cls-1" d="M0,724.34V545.51s200-226.1,603-226.1c337,0,405,52,811,66C1807.76,399,1919.76,80,1919.76,80V252.8S1840.68,470.88,1624,534.41c-324,95-729.62-68.34-1116.41-30C155,539.41,0,724.34,0,724.34Z"/><path class="cls-2" d="M0,684.34V505.51s200-226.1,603-226.1c337,0,405,52,811,66C1807.76,359,1919.76,40,1919.76,40V212.8S1840.68,430.88,1624,494.41c-324,95-729.62-68.34-1116.41-30C155,499.41,0,684.34,0,684.34Z"/><path class="cls-3" d="M0,644.34V465.51s200-226.1,603-226.1c337,0,405,52,811,66C1807.76,319,1919.76,0,1919.76,0V172.8S1840.68,390.88,1624,454.41c-324,95-729.62-68.34-1116.41-30C155,459.41,0,644.34,0,644.34Z"/></g></g></svg>